<?xml version="1.0" standalone="no"?>
<!DOCTYPE svg PUBLIC "-//W3C//DTD SVG 20010904//EN"
 "http://www.w3.org/TR/2001/REC-SVG-20010904/DTD/svg10.dtd">
<svg version="1.0" xmlns="http://www.w3.org/2000/svg"
 width="100.000000pt" height="100.000000pt" viewBox="0 0 100.000000 100.000000"
 preserveAspectRatio="xMidYMid meet">
<metadata>
Created by potrace 1.11, written by Peter Selinger 2001-2013
</metadata>
<g transform="translate(0.000000,100.000000) scale(0.100000,-0.100000)"
fill="#000000" stroke="none">
<path d="M477 889 c-9 -6 -17 -7 -17 -4 0 3 -31 -10 -69 -30 -74 -39 -122 -84
-169 -160 -18 -30 -32 -43 -37 -36 -5 9 -10 9 -21 0 -20 -16 -18 -37 4 -35 9
0 17 -6 17 -14 0 -9 -7 -14 -18 -12 -9 2 -17 -1 -17 -6 0 -5 -11 -7 -25 -4
-18 3 -25 0 -25 -12 0 -15 15 -20 52 -17 12 2 18 -5 18 -16 0 -17 -8 -19 -63
-18 -72 2 -87 -2 -87 -21 0 -15 11 -16 97 -17 33 0 54 -4 57 -13 6 -14 -10
-22 -41 -19 -27 2 -37 -19 -17 -35 8 -7 14 -8 14 -3 0 5 13 8 29 5 22 -3 28
-8 24 -22 -4 -15 -14 -18 -65 -16 -63 2 -110 -16 -76 -29 9 -4 48 -5 87 -3 68
3 70 2 87 -27 31 -54 79 -114 92 -115 6 0 12 -4 12 -9 0 -10 110 -70 138 -74
12 -2 25 -6 28 -10 9 -9 159 -9 168 0 3 4 17 8 29 10 86 13 200 109 250 211
29 61 32 76 34 170 1 59 -2 102 -7 102 -6 0 -10 7 -10 15 0 9 -8 30 -17 48 -9
18 -17 35 -18 38 -1 14 -104 115 -134 130 -14 8 -29 18 -33 24 -4 5 -8 7 -8 3
0 -4 -20 1 -43 11 -48 21 -189 27 -220 10z m132 -230 c4 6 12 6 20 2 8 -5 27
-5 42 -1 17 5 29 5 29 0 0 -6 10 -6 24 0 16 6 26 5 28 -1 2 -5 15 -6 36 0 18
6 32 6 32 1 0 -5 6 -7 14 -4 7 3 16 -2 19 -10 4 -9 3 -16 -2 -16 -4 0 -8 -6
-8 -12 0 -7 -4 -26 -8 -43 -4 -16 -7 -40 -8 -52 -1 -13 -5 -23 -10 -23 -4 0
-6 -4 -3 -8 3 -5 0 -26 -6 -48 -6 -21 -11 -45 -9 -52 6 -36 -14 -39 -258 -40
-201 -1 -240 1 -245 13 -6 18 -12 17 134 19 97 1 115 3 118 17 4 19 -47 31
-72 17 -10 -6 -16 -5 -16 1 0 7 -8 7 -25 1 -14 -5 -25 -6 -25 -1 0 5 -8 7 -19
4 -22 -6 -37 12 -19 23 7 5 37 7 66 6 45 -2 52 1 52 16 0 15 -8 19 -35 19 -40
0 -50 6 -42 26 4 10 21 13 62 11 48 -2 56 0 53 14 -3 14 -17 17 -73 19 -98 2
-95 2 -95 17 0 10 12 14 45 13 25 -1 45 1 45 4 0 4 15 4 33 -1 18 -4 43 -3 55
1 20 8 21 12 11 30 -6 12 -14 18 -18 13 -7 -11 -102 -11 -119 0 -25 15 0 24
63 24 36 0 68 2 71 5 4 3 18 1 32 -4 16 -6 27 -6 31 0z m-235 -10 c3 -3 -4
-10 -16 -16 -25 -11 -73 1 -64 16 6 9 71 10 80 0z m-10 -137 c-2 -26 -5 -29
-25 -27 -28 2 -44 28 -21 36 24 9 47 4 46 -9z"/>
<path d="M659 598 c-87 -33 -116 -144 -46 -179 37 -18 91 -9 117 19 24 27 46
66 44 80 -1 6 -2 19 -3 27 -1 20 -38 52 -65 57 -13 3 -34 1 -47 -4z m44 -47
c-2 -6 2 -11 7 -11 6 0 10 -5 10 -10 0 -7 -6 -7 -19 0 -26 13 -32 13 -30 -2 4
-36 -1 -41 -21 -23 l-21 19 27 23 c28 23 51 26 47 4z m-8 -41 c-3 -5 -1 -10 4
-10 20 0 11 -24 -16 -47 -24 -22 -27 -22 -38 -6 -15 21 -18 33 -7 32 4 -1 6
-5 5 -9 -1 -4 7 -6 17 -3 11 3 20 13 20 22 0 10 3 21 7 24 10 10 15 8 8 -3z"/>
<path d="M77 654 c-3 -4 1 -13 9 -22 14 -13 17 -13 25 -1 5 8 9 17 9 22 0 9
-34 10 -43 1z"/>
<path d="M54 434 c3 -9 6 -17 6 -20 0 -2 7 -1 15 2 23 9 18 34 -6 34 -15 0
-19 -4 -15 -16z"/>
</g>
</svg>
